<svg fill="none" height="84" viewBox="0 0 480 84" width="480" xmlns="http://www.w3.org/2000/svg" xmlns:xlink="http://www.w3.org/1999/xlink"><linearGradient id="a"><stop offset="0" stop-color="#36495e"/><stop offset="1" stop-color="#0a1c33"/></linearGradient><linearGradient id="b" gradientUnits="userSpaceOnUse" x1="61.7617" x2="61.7617" xlink:href="#a" y1="83.1439" y2="33.7713"/><linearGradient id="c" gradientUnits="userSpaceOnUse" x1="90.2671" x2="90.2671" xlink:href="#a" y1="83.1439" y2="33.7713"/><linearGradient id="d" gradientUnits="userSpaceOnUse" x1="76.0144" x2="76.0144" y1="83.1439" y2=".856122"><stop offset=".2" stop-color="#41b782"/><stop offset="1" stop-color="#86d169"/></linearGradient><clipPath id="e"><path d="m0 0h480v84h-480z"/></clipPath><g clip-path="url(#e)"><path d="m36.5 83.1 11-19 11 19h17.5l-28.5-49.3-28.5 49.3z" fill="#36495e"/><path d="m47.5 33.8v30.3l11 19h17.5z" fill="url(#b)"/><path d="m115.5 83.1-11-19-11 19h-17.5l28.5-49.3 28.5 49.3z" fill="#36495e"/><path d="m104.5 33.8v30.3l-11 19h-17.5z" fill="url(#c)"/><path d="m104.5.900024-28.5 49.299976-28.5-49.299976-47.5 82.199976h19l28.5-49.3 28.5 49.3 28.5-49.3 28.5 49.3h19z" fill="url(#d)"/><g fill="#36495e"><path d="m178.9 35.6h10.8l-11.7 35.6h-11.3l-11.6-35.6h10.8l4.8 18c1 4 1.6 6.8 1.7 8.4.1-1.1.3-2.6.7-4.3.3-1.7.6-3 .9-4z"/><path d="m212.6 71.2-1.2-3.4h-.6c-.8 1.3-1.9 2.2-3.3 2.9s-3.1 1-5 1c-3 0-5.4-.9-7.1-2.6-1.7-1.8-2.5-4.2-2.5-7.5v-18h9.5v15.1c0 1.8.3 3.2.8 4.1s1.3 1.4 2.5 1.4c1.6 0 2.8-.6 3.5-1.9s1-3.5 1-6.5v-12.2h9.5v27.6z"/><path d="m239.6 71.6999c-4.6 0-8.2-1.1999-10.7-3.6999-2.5-2.4-3.8-5.9001-3.8-10.4001 0-4.7 1.2-8.1999 3.5-10.6999 2.4-2.5 5.7-3.7 10.1-3.7 4.2 0 7.4 1.1 9.6 3.2 2.3 2.2 3.4 5.2999 3.4 9.3999v4.2001h-17c.1 1.5.6 2.6999 1.7 3.5999s2.5 1.3001 4.3 1.3001c1.7 0 3.2-.2 4.6-.5s2.9-.9001 4.6-1.6001v6.8c-1.5.8-3 1.3-4.6 1.6s-3.5.5-5.7.5zm-.5-22.1c-1.1 0-2.1.4001-2.8 1.1001-.8.7-1.2 1.8-1.3 3.3h8.2c0-1.3-.4-2.4001-1.1-3.2001s-1.8-1.2-3-1.2z"/><path d="m286.1 71.2-7.3-25.6h-.2c.3 4.4.5 7.8.5 10.2v15.4h-8.5v-35.6h12.8l7.4 25.2h.2l7.3-25.2h12.8v35.6h-8.8v-15.6c0-.8 0-1.7 0-2.7s.1-3.4.3-7.3h-.2l-7.2 25.6z"/><path d="m336.2 71.1999-1.8-3.6h-.2c-1.3 1.6-2.6 2.7001-3.9 3.3001s-3 .9-5.2.9c-2.6 0-4.6-.8-6.1-2.3-1.5-1.6-2.2-3.7-2.2-6.6s1-5.1001 3.1-6.6001c2-1.4 5-2.1999 8.9-2.3999l4.6-.1001v-.3999c0-2.3-1.1-3.4-3.4-3.4-2 0-4.6.7-7.7 2l-2.7-6.3c3.2-1.7 7.3-2.5 12.2-2.5 3.5 0 6.3.8999 8.2 2.5999 1.9 1.8 2.9 4.2 2.9 7.3v18.1zm-7.1-6.2999c1.2 0 2.1-.4001 3-1.1001s1.2-1.6999 1.2-2.7999v-2.1l-2.2.1c-3.1.1-4.7 1.3-4.7 3.5 0 1.6.9 2.4 2.7 2.4z"/><path d="m370.5 62.6999c0 3-1 5.2-3 6.7s-4.9 2.3-8.7 2.3c-2 0-3.8-.1-5.3-.3s-3-.6-4.6-1.2v-7.6c1.5.6 3.1 1.2 4.9 1.6s3.3.6 4.7.6c2.1 0 3.1-.5 3.1-1.4 0-.5-.3-.9-.9-1.3s-2.2-1.1-5-2.2c-2.5-1-4.3-2.2-5.3-3.5s-1.5-3-1.5-5c0-2.6 1-4.6 3-6s4.8-2.1 8.4-2.1c1.8 0 3.5.2 5.1.6s3.3 1 5 1.7l-2.6 6.1c-1.3-.6-2.6-1-4-1.4s-2.6-.6-3.5-.6c-1.6 0-2.3.4-2.3 1.1 0 .5.3.9.8 1.2s2.1 1 4.7 2c1.9.8 3.4 1.6 4.3 2.3s1.6 1.7 2.1 2.7.6 2.2.6 3.7z"/><path d="m389.3 64.1c1.3 0 2.8-.3 4.6-.9v6.9c-1.3.6-2.5.9-3.7 1.2-1.2.2-2.5.4-4.1.4-3.2 0-5.5-.8-6.9-2.3-1.4-1.6-2.1-4-2.1-7.2v-11.5h-3.3v-3.9l4.2-3 2.5-5.8h6.2v5.5h6.8v7.1h-6.8v10.7c0 2 .9 2.8 2.6 2.8z"/><path d="m412 71.6999c-4.6 0-8.2-1.1999-10.7-3.6999-2.5-2.4-3.8-5.9001-3.8-10.4001 0-4.7 1.2-8.1999 3.5-10.6999 2.4-2.5 5.7-3.7 10.1-3.7 4.2 0 7.4 1.1 9.6 3.2 2.3 2.2 3.4 5.2999 3.4 9.3999v4.2001h-17c.1 1.5.6 2.6999 1.7 3.5999s2.5 1.3001 4.3 1.3001c1.7 0 3.2-.2 4.6-.5s2.9-.9001 4.6-1.6001v6.8c-1.5.8-3 1.3-4.6 1.6s-3.5.5-5.7.5zm-.5-22.1c-1.1 0-2.1.4001-2.8 1.1001-.8.7-1.2 1.8-1.3 3.3h8.2c0-1.3-.4-2.4001-1.1-3.2001s-1.8-1.2-3-1.2z"/><path d="m446.2 43.1c.8 0 1.6.1 2.4.2l.5.1-.9 9c-.8-.2-1.9-.3-3.2-.3-2.1 0-3.6.5-4.5 1.4s-1.4 2.3-1.4 4.1v13.5h-9.5v-27.5h7.1l1.5 4.4h.5c.8-1.5 1.9-2.6 3.3-3.5 1.3-.9 2.7-1.4 4.2-1.4z"/><path d="m449.6 43.6h10l4.7 15.8c.2.8.4 1.8.5 3h.2c.1-1.1.3-2.1.6-2.9l4.8-15.9h9.7l-10.9 29.3c-1.4 3.7-3.1 6.4-5.1 7.9s-4.7 2.3-8 2.3c-1.3 0-2.6-.1-3.9-.4v-7.5c.9.2 1.8.3 2.9.3.8 0 1.6-.2 2.2-.5s1.2-.8 1.7-1.4 1-1.6 1.5-2.9z"/></g></g></svg>